<?xml version="1.0" encoding="UTF-8"?>
<svg xmlns="http://www.w3.org/2000/svg" xmlns:xlink="http://www.w3.org/1999/xlink" width="25px" height="25px" viewBox="0 0 25 25" version="1.1">
<g id="surface1">
<path style=" stroke:none;fill-rule:nonzero;fill:rgb(0%,0%,0%);fill-opacity:1;" d="M 21.085938 3.570312 L 19.535156 3.570312 C 19.5 3.570312 19.476562 3.582031 19.445312 3.589844 L 19.445312 1.960938 C 19.445312 0.882812 18.542969 0 17.4375 0 L 3.992188 0 C 2.882812 0 1.984375 0.882812 1.984375 1.960938 L 1.984375 20.257812 C 1.984375 21.34375 2.882812 22.21875 3.992188 22.21875 L 6.351562 22.21875 L 6.351562 23.109375 C 6.351562 24.148438 7.214844 25 8.28125 25 L 21.085938 25 C 22.148438 25 23.015625 24.148438 23.015625 23.109375 L 23.015625 5.464844 C 23.015625 4.421875 22.148438 3.570312 21.085938 3.570312 Z M 2.78125 20.257812 L 2.78125 1.960938 C 2.78125 1.320312 3.320312 0.792969 3.992188 0.792969 L 17.4375 0.792969 C 18.105469 0.792969 18.648438 1.320312 18.648438 1.960938 L 18.648438 20.257812 C 18.648438 20.90625 18.105469 21.429688 17.4375 21.429688 L 3.992188 21.429688 C 3.320312 21.429688 2.78125 20.90625 2.78125 20.257812 Z M 22.21875 23.109375 C 22.21875 23.710938 21.710938 24.207031 21.085938 24.207031 L 8.28125 24.207031 C 7.65625 24.207031 7.140625 23.710938 7.140625 23.109375 L 7.140625 22.21875 L 17.4375 22.21875 C 18.542969 22.21875 19.445312 21.34375 19.445312 20.257812 L 19.445312 4.347656 C 19.476562 4.351562 19.5 4.367188 19.535156 4.367188 L 21.085938 4.367188 C 21.710938 4.367188 22.21875 4.859375 22.21875 5.464844 Z M 22.21875 23.109375 "/>
<path style=" stroke:none;fill-rule:nonzero;fill:rgb(0%,0%,0%);fill-opacity:1;" d="M 15.078125 5.15625 L 6.351562 5.15625 C 6.132812 5.15625 5.953125 5.335938 5.953125 5.554688 C 5.953125 5.773438 6.132812 5.953125 6.351562 5.953125 L 15.078125 5.953125 C 15.296875 5.953125 15.476562 5.773438 15.476562 5.554688 C 15.476562 5.335938 15.296875 5.15625 15.078125 5.15625 Z M 15.078125 5.15625 "/>
<path style=" stroke:none;fill-rule:nonzero;fill:rgb(0%,0%,0%);fill-opacity:1;" d="M 15.078125 8.335938 L 6.351562 8.335938 C 6.132812 8.335938 5.953125 8.507812 5.953125 8.730469 C 5.953125 8.949219 6.132812 9.125 6.351562 9.125 L 15.078125 9.125 C 15.296875 9.125 15.476562 8.949219 15.476562 8.730469 C 15.476562 8.507812 15.296875 8.335938 15.078125 8.335938 Z M 15.078125 8.335938 "/>
<path style=" stroke:none;fill-rule:nonzero;fill:rgb(0%,0%,0%);fill-opacity:1;" d="M 15.078125 11.507812 L 6.351562 11.507812 C 6.132812 11.507812 5.953125 11.6875 5.953125 11.90625 C 5.953125 12.125 6.132812 12.300781 6.351562 12.300781 L 15.078125 12.300781 C 15.296875 12.300781 15.476562 12.125 15.476562 11.90625 C 15.476562 11.6875 15.296875 11.507812 15.078125 11.507812 Z M 15.078125 11.507812 "/>
<path style=" stroke:none;fill-rule:nonzero;fill:rgb(0%,0%,0%);fill-opacity:1;" d="M 11.109375 14.683594 L 6.351562 14.683594 C 6.132812 14.683594 5.953125 14.859375 5.953125 15.078125 C 5.953125 15.296875 6.132812 15.476562 6.351562 15.476562 L 11.109375 15.476562 C 11.328125 15.476562 11.507812 15.296875 11.507812 15.078125 C 11.507812 14.859375 11.328125 14.683594 11.109375 14.683594 Z M 11.109375 14.683594 "/>
</g>
</svg>
