<?xml version="1.0" encoding="UTF-8"?>
<svg xmlns="http://www.w3.org/2000/svg" xmlns:xlink="http://www.w3.org/1999/xlink" width="25px" height="25px" viewBox="0 0 25 25" version="1.1">
<g id="surface1">
<path style=" stroke:none;fill-rule:nonzero;fill:rgb(44.313725%,77.254902%,59.607843%);fill-opacity:1;" d="M 15.195312 1.875 C 15.195312 1.875 15.628906 5.175781 15.671875 7.125 C 16.585938 7.101562 23.8125 7.074219 23.8125 7.074219 L 23.5 3.183594 C 23.5 3.183594 23.761719 1.808594 21.6875 1.992188 C 19.617188 2.175781 15.195312 1.875 15.195312 1.875 Z M 15.195312 1.875 "/>
<path style=" stroke:none;fill-rule:nonzero;fill:rgb(21.960784%,70.588235%,48.235294%);fill-opacity:1;" d="M 15.566406 12.417969 L 15.746094 6.980469 L 23.832031 6.980469 L 23.8125 11.652344 C 23.8125 11.652344 17.71875 12.417969 15.566406 12.417969 Z M 15.566406 12.417969 "/>
<path style=" stroke:none;fill-rule:nonzero;fill:rgb(21.960784%,70.588235%,48.235294%);fill-opacity:1;" d="M 6.519531 6.894531 L 6.417969 3.253906 C 6.417969 3.253906 6.089844 1.84375 8.457031 1.644531 C 10.828125 1.445312 15.566406 1.992188 15.566406 1.992188 L 15.828125 7.117188 Z M 6.519531 6.894531 "/>
<path style=" stroke:none;fill-rule:nonzero;fill:rgb(16.862745%,54.901961%,36.862745%);fill-opacity:1;" d="M 11.003906 7.074219 L 15.671875 7.125 L 15.460938 12.296875 C 15.460938 12.296875 21.003906 12.269531 23.921875 11.582031 C 23.882812 12.488281 23.589844 17.621094 23.589844 17.621094 L 15.25 17.335938 L 11.480469 17.3125 Z M 11.003906 7.074219 "/>
<path style=" stroke:none;fill-rule:nonzero;fill:rgb(7.058824%,44.705882%,44.705882%);fill-opacity:1;" d="M 15.25 23.011719 L 9.800781 23.34375 C 9.800781 23.34375 6.550781 23.78125 6.441406 20.867188 C 6.335938 17.953125 6.363281 17.410156 6.363281 17.410156 L 6.519531 12.417969 L 15.460938 12.382812 L 15.347656 17.3125 C 15.347656 17.3125 21.550781 17.097656 23.691406 17.632812 C 23.769531 19.023438 23.515625 21.132812 23.515625 21.132812 C 23.515625 21.132812 23.664062 23.640625 20.609375 23.3125 C 17.550781 22.984375 15.25 23.011719 15.25 23.011719 Z M 15.25 23.011719 "/>
<path style=" stroke:none;fill-rule:nonzero;fill:rgb(16.862745%,54.901961%,36.862745%);fill-opacity:1;" d="M 9.558594 6.699219 C 7.335938 6.945312 5.203125 6.554688 2.972656 6.675781 C 2.277344 6.714844 1.492188 6.800781 1.078125 7.363281 C 0.757812 7.789062 0.757812 8.371094 0.765625 8.90625 C 0.789062 9.976562 0.808594 11.363281 0.828125 12.4375 C 0.855469 13.902344 0.886719 15.367188 0.914062 16.832031 C 0.917969 17.097656 0.933594 17.386719 1.101562 17.585938 C 1.21875 17.726562 1.390625 17.800781 1.558594 17.863281 C 2.753906 18.308594 4.050781 18.382812 5.328125 18.394531 C 7.253906 18.417969 9.179688 18.316406 11.089844 18.097656 C 11.316406 18.070312 11.542969 18.042969 11.75 17.949219 C 12.175781 17.75 12.433594 17.289062 12.515625 16.820312 C 12.601562 16.355469 12.535156 15.878906 12.480469 15.40625 C 12.171875 12.917969 12.039062 10.507812 12.078125 8 C 12.082031 7.585938 12.074219 7.117188 11.769531 6.839844 C 11.542969 6.625 11.207031 6.585938 10.898438 6.578125 C 10.414062 6.566406 10.039062 6.644531 9.558594 6.699219 Z M 9.558594 6.699219 "/>
<path style=" stroke:none;fill-rule:nonzero;fill:rgb(0.392157%,0.392157%,0.392157%);fill-opacity:1;" d="M 9.558594 6.4375 C 7.949219 6.609375 6.335938 6.457031 4.722656 6.40625 C 3.957031 6.382812 3.179688 6.371094 2.417969 6.464844 C 1.882812 6.53125 1.320312 6.6875 0.949219 7.109375 C 0.515625 7.601562 0.496094 8.28125 0.507812 8.90625 C 0.519531 9.609375 0.53125 10.3125 0.542969 11.015625 C 0.570312 12.609375 0.601562 14.207031 0.632812 15.800781 C 0.640625 16.191406 0.636719 16.589844 0.660156 16.984375 C 0.675781 17.296875 0.742188 17.613281 0.980469 17.835938 C 1.179688 18.019531 1.460938 18.109375 1.714844 18.191406 C 2.09375 18.320312 2.480469 18.410156 2.871094 18.476562 C 4.433594 18.738281 6.0625 18.683594 7.636719 18.621094 C 8.492188 18.589844 9.347656 18.53125 10.199219 18.453125 C 10.839844 18.390625 11.652344 18.421875 12.171875 17.984375 C 12.675781 17.554688 12.832031 16.871094 12.816406 16.234375 C 12.800781 15.457031 12.648438 14.671875 12.574219 13.894531 C 12.398438 12.0625 12.320312 10.222656 12.335938 8.378906 C 12.339844 7.726562 12.417969 6.882812 11.753906 6.503906 C 11.113281 6.140625 10.242188 6.359375 9.558594 6.4375 C 9.230469 6.476562 9.226562 7 9.558594 6.960938 C 10.121094 6.894531 10.835938 6.699219 11.386719 6.910156 C 12.015625 7.148438 11.8125 8.175781 11.8125 8.699219 C 11.808594 10.140625 11.863281 11.582031 11.976562 13.019531 C 12.035156 13.734375 12.105469 14.445312 12.1875 15.152344 C 12.265625 15.792969 12.425781 16.53125 12.152344 17.144531 C 11.839844 17.847656 11.121094 17.839844 10.453125 17.90625 C 9.707031 17.980469 8.960938 18.039062 8.214844 18.078125 C 6.78125 18.152344 5.324219 18.191406 3.890625 18.078125 C 3.199219 18.023438 2.511719 17.910156 1.851562 17.691406 C 1.558594 17.59375 1.265625 17.507812 1.199219 17.164062 C 1.128906 16.8125 1.167969 16.414062 1.160156 16.058594 C 1.132812 14.640625 1.101562 13.222656 1.078125 11.804688 C 1.066406 11.140625 1.054688 10.476562 1.042969 9.816406 C 1.035156 9.230469 0.953125 8.589844 1.078125 8.015625 C 1.234375 7.296875 1.84375 7.054688 2.511719 6.972656 C 3.242188 6.886719 3.988281 6.902344 4.722656 6.925781 C 6.335938 6.976562 7.949219 7.128906 9.558594 6.960938 C 9.890625 6.925781 9.894531 6.402344 9.558594 6.4375 Z M 9.558594 6.4375 "/>
<path style=" stroke:none;fill-rule:nonzero;fill:rgb(0.392157%,0.392157%,0.392157%);fill-opacity:1;" d="M 6.140625 18.511719 C 6.203125 19.441406 6.113281 20.378906 6.222656 21.304688 C 6.332031 22.222656 6.777344 22.886719 7.644531 23.230469 C 8.539062 23.582031 9.585938 23.585938 10.53125 23.601562 C 11.667969 23.617188 12.804688 23.546875 13.941406 23.476562 C 15.078125 23.40625 16.214844 23.332031 17.355469 23.347656 C 18.515625 23.367188 19.664062 23.539062 20.820312 23.582031 C 21.714844 23.613281 22.632812 23.519531 23.199219 22.746094 C 23.6875 22.082031 23.789062 21.214844 23.855469 20.421875 C 24.027344 18.292969 23.902344 16.15625 23.945312 14.023438 C 23.992188 11.710938 24.136719 9.402344 24.074219 7.089844 C 24.042969 5.945312 23.96875 4.804688 23.828125 3.667969 C 23.773438 3.222656 23.742188 2.734375 23.5 2.339844 C 23.285156 1.988281 22.917969 1.785156 22.519531 1.71875 C 22.089844 1.648438 21.660156 1.707031 21.230469 1.746094 C 20.667969 1.800781 20.105469 1.828125 19.539062 1.835938 C 18.410156 1.851562 17.277344 1.785156 16.152344 1.699219 C 13.902344 1.523438 11.644531 1.238281 9.386719 1.3125 C 8.859375 1.332031 8.328125 1.375 7.8125 1.496094 C 7.386719 1.589844 6.863281 1.730469 6.535156 2.039062 C 6.203125 2.351562 6.1875 2.8125 6.15625 3.242188 C 6.117188 3.808594 6.101562 4.375 6.105469 4.941406 C 6.109375 5.507812 6.140625 6.074219 6.1875 6.640625 C 6.214844 6.972656 6.734375 6.972656 6.707031 6.640625 C 6.621094 5.59375 6.601562 4.542969 6.664062 3.492188 C 6.691406 3.007812 6.644531 2.496094 7.148438 2.257812 C 7.621094 2.03125 8.167969 1.929688 8.683594 1.878906 C 10.738281 1.671875 12.851562 1.9375 14.894531 2.113281 C 16.9375 2.292969 18.996094 2.457031 21.042969 2.285156 C 21.863281 2.214844 22.957031 1.964844 23.207031 3.015625 C 23.441406 4.015625 23.464844 5.113281 23.515625 6.136719 C 23.621094 8.214844 23.5625 10.296875 23.480469 12.375 C 23.402344 14.371094 23.457031 16.359375 23.429688 18.351562 C 23.414062 19.269531 23.402344 20.210938 23.253906 21.121094 C 23.125 21.902344 22.832031 22.746094 21.988281 22.984375 C 21.535156 23.109375 21.035156 23.074219 20.570312 23.050781 C 20.023438 23.019531 19.476562 22.960938 18.929688 22.914062 C 17.878906 22.820312 16.828125 22.8125 15.773438 22.855469 C 13.480469 22.945312 11.15625 23.253906 8.863281 22.980469 C 7.886719 22.867188 6.960938 22.527344 6.765625 21.457031 C 6.59375 20.488281 6.730469 19.488281 6.664062 18.511719 C 6.640625 18.179688 6.121094 18.175781 6.140625 18.511719 Z M 6.140625 18.511719 "/>
<path style=" stroke:none;fill-rule:nonzero;fill:rgb(0.392157%,0.392157%,0.392157%);fill-opacity:1;" d="M 15.074219 1.992188 C 15.761719 7.472656 15.222656 12.996094 15.042969 18.488281 C 14.992188 20.039062 14.972656 21.585938 15.015625 23.136719 C 15.023438 23.472656 15.542969 23.472656 15.535156 23.136719 C 15.386719 17.625 16.039062 12.125 15.917969 6.613281 C 15.882812 5.066406 15.785156 3.523438 15.59375 1.992188 C 15.550781 1.664062 15.03125 1.660156 15.074219 1.992188 Z M 15.074219 1.992188 "/>
<path style=" stroke:none;fill-rule:nonzero;fill:rgb(0.392157%,0.392157%,0.392157%);fill-opacity:1;" d="M 11.976562 7.335938 C 15.890625 7.335938 19.804688 7.449219 23.71875 7.335938 C 24.050781 7.324219 24.054688 6.804688 23.71875 6.8125 C 19.804688 6.925781 15.890625 6.816406 11.976562 6.8125 C 11.640625 6.8125 11.640625 7.332031 11.976562 7.335938 Z M 11.976562 7.335938 "/>
<path style=" stroke:none;fill-rule:nonzero;fill:rgb(0.392157%,0.392157%,0.392157%);fill-opacity:1;" d="M 12.332031 12.675781 C 16.15625 12.683594 19.972656 12.503906 23.761719 11.96875 C 24.09375 11.921875 23.953125 11.421875 23.621094 11.46875 C 19.882812 11.996094 16.105469 12.164062 12.332031 12.15625 C 11.996094 12.15625 11.996094 12.675781 12.332031 12.675781 Z M 12.332031 12.675781 "/>
<path style=" stroke:none;fill-rule:nonzero;fill:rgb(0.392157%,0.392157%,0.392157%);fill-opacity:1;" d="M 12.332031 17.738281 C 16.113281 17.464844 19.910156 17.5625 23.691406 17.765625 C 24.027344 17.785156 24.027344 17.261719 23.691406 17.246094 C 19.910156 17.042969 16.113281 16.945312 12.332031 17.214844 C 12 17.238281 11.996094 17.761719 12.332031 17.738281 Z M 12.332031 17.738281 "/>
<path style=" stroke:none;fill-rule:nonzero;fill:rgb(83.921569%,89.803922%,89.803922%);fill-opacity:1;" d="M 9.652344 15.957031 C 9.359375 15.015625 8.648438 14.03125 8.066406 13.238281 C 7.9375 13.0625 7.8125 12.871094 7.789062 12.65625 C 7.761719 12.386719 7.894531 12.128906 8.027344 11.894531 C 8.558594 10.949219 9.023438 10.027344 9.636719 9.128906 C 9.136719 9.097656 8.761719 8.984375 8.320312 9.007812 C 8.171875 9.015625 8.015625 9.027344 7.894531 9.117188 C 7.808594 9.179688 7.75 9.273438 7.695312 9.367188 C 7.371094 9.925781 7.050781 10.484375 6.726562 11.042969 C 6.410156 10.457031 6.097656 9.871094 5.785156 9.285156 C 5.742188 9.207031 5.699219 9.125 5.625 9.074219 C 5.515625 8.996094 5.367188 9 5.234375 9.011719 C 4.800781 9.042969 3.867188 9.121094 3.4375 9.152344 C 4.105469 10.164062 5.078125 11.28125 5.542969 12.402344 C 5.574219 12.472656 5.601562 12.546875 5.597656 12.625 C 5.59375 12.734375 5.527344 12.828125 5.464844 12.914062 C 4.773438 13.855469 4.082031 14.792969 3.390625 15.730469 C 3.476562 15.867188 4.871094 15.929688 5.433594 15.851562 C 5.816406 15.207031 6.28125 14.1875 6.664062 13.542969 C 7.046875 14.351562 7.460938 14.988281 7.914062 15.761719 C 7.945312 15.820312 7.984375 15.878906 8.039062 15.914062 C 8.101562 15.949219 8.179688 15.949219 8.253906 15.945312 C 8.722656 15.925781 9.1875 16.03125 9.652344 15.957031 Z M 9.652344 15.957031 "/>
<path style=" stroke:none;fill-rule:nonzero;fill:rgb(0.392157%,0.392157%,0.392157%);fill-opacity:1;" d="M 9.902344 15.886719 C 9.71875 15.328125 9.445312 14.808594 9.128906 14.3125 C 8.964844 14.050781 8.789062 13.800781 8.613281 13.546875 C 8.449219 13.316406 8.238281 13.089844 8.113281 12.832031 C 7.941406 12.464844 8.199219 12.121094 8.375 11.808594 C 8.535156 11.519531 8.691406 11.230469 8.847656 10.945312 C 9.164062 10.371094 9.492188 9.804688 9.859375 9.261719 C 9.980469 9.085938 9.816406 8.882812 9.636719 8.871094 C 9.074219 8.828125 8.238281 8.542969 7.738281 8.910156 C 7.464844 9.113281 7.3125 9.511719 7.148438 9.796875 C 6.933594 10.167969 6.71875 10.539062 6.5 10.910156 C 6.652344 10.910156 6.800781 10.910156 6.949219 10.910156 C 6.714844 10.472656 6.480469 10.03125 6.246094 9.589844 C 6.058594 9.246094 5.917969 8.804688 5.472656 8.753906 C 5.152344 8.714844 4.796875 8.785156 4.476562 8.808594 C 4.128906 8.839844 3.785156 8.867188 3.4375 8.894531 C 3.253906 8.90625 3.09375 9.109375 3.210938 9.285156 C 3.871094 10.269531 4.667969 11.175781 5.1875 12.246094 C 5.261719 12.394531 5.355469 12.527344 5.300781 12.695312 C 5.261719 12.828125 5.09375 12.984375 5.007812 13.097656 C 4.804688 13.375 4.601562 13.652344 4.394531 13.929688 C 3.984375 14.488281 3.574219 15.042969 3.167969 15.597656 C 3.097656 15.695312 3.132812 15.835938 3.207031 15.914062 C 3.386719 16.105469 3.769531 16.097656 4.007812 16.117188 C 4.421875 16.152344 4.847656 16.164062 5.261719 16.128906 C 5.46875 16.113281 5.589844 16.09375 5.703125 15.90625 C 5.839844 15.683594 5.957031 15.441406 6.078125 15.210938 C 6.34375 14.695312 6.597656 14.175781 6.886719 13.675781 C 6.738281 13.675781 6.589844 13.675781 6.4375 13.675781 C 6.796875 14.421875 7.230469 15.132812 7.660156 15.84375 C 7.875 16.199219 8.097656 16.195312 8.488281 16.207031 C 8.902344 16.214844 9.304688 16.261719 9.71875 16.207031 C 10.050781 16.164062 9.910156 15.660156 9.582031 15.707031 C 9.238281 15.75 8.890625 15.699219 8.546875 15.6875 C 8.371094 15.679688 8.230469 15.714844 8.109375 15.578125 C 8 15.457031 7.921875 15.261719 7.835938 15.121094 C 7.5 14.5625 7.171875 14 6.886719 13.410156 C 6.800781 13.230469 6.53125 13.253906 6.4375 13.410156 C 6 14.164062 5.648438 14.964844 5.210938 15.71875 C 5.285156 15.675781 5.359375 15.632812 5.433594 15.589844 C 5.078125 15.636719 4.710938 15.632812 4.355469 15.617188 C 4.179688 15.609375 4.007812 15.601562 3.835938 15.578125 C 3.769531 15.570312 3.691406 15.546875 3.625 15.546875 C 3.582031 15.542969 3.527344 15.492188 3.574219 15.546875 C 3.589844 15.652344 3.601562 15.757812 3.617188 15.863281 C 4.066406 15.253906 4.511719 14.644531 4.960938 14.035156 C 5.191406 13.722656 5.425781 13.414062 5.652344 13.097656 C 5.84375 12.832031 5.90625 12.613281 5.78125 12.300781 C 5.289062 11.089844 4.382812 10.09375 3.664062 9.023438 C 3.585938 9.152344 3.511719 9.285156 3.4375 9.414062 C 4.003906 9.371094 4.570312 9.320312 5.140625 9.277344 C 5.347656 9.261719 5.484375 9.273438 5.589844 9.46875 C 5.6875 9.652344 5.785156 9.835938 5.882812 10.019531 C 6.089844 10.402344 6.296875 10.789062 6.5 11.175781 C 6.59375 11.347656 6.855469 11.339844 6.949219 11.175781 C 7.125 10.875 7.296875 10.578125 7.46875 10.28125 C 7.625 10.011719 7.761719 9.699219 7.949219 9.453125 C 8.269531 9.039062 9.1875 9.355469 9.636719 9.390625 C 9.558594 9.257812 9.484375 9.128906 9.410156 9 C 9.007812 9.59375 8.65625 10.214844 8.308594 10.84375 C 8.140625 11.148438 7.96875 11.453125 7.800781 11.761719 C 7.652344 12.039062 7.507812 12.332031 7.53125 12.65625 C 7.570312 13.222656 8.121094 13.738281 8.421875 14.183594 C 8.8125 14.757812 9.183594 15.359375 9.398438 16.023438 C 9.503906 16.34375 10.007812 16.207031 9.902344 15.886719 Z M 9.902344 15.886719 "/>
</g>
</svg>
