<?xml version="1.0" encoding="UTF-8"?>
<svg xmlns="http://www.w3.org/2000/svg" xmlns:xlink="http://www.w3.org/1999/xlink" width="24px" height="25px" viewBox="0 0 24 25" version="1.1">
<g id="surface1">
<path style=" stroke:none;fill-rule:evenodd;fill:rgb(0%,0%,0%);fill-opacity:1;" d="M 5.285156 11.601562 L 18.792969 11.601562 L 18.792969 7.613281 L 14.488281 7.613281 C 14.035156 7.613281 13.40625 7.375 13.109375 7.085938 C 12.8125 6.796875 12.628906 6.273438 12.628906 5.835938 L 12.628906 1.589844 L 1.695312 1.589844 C 1.660156 1.589844 1.628906 1.609375 1.613281 1.628906 C 1.582031 1.648438 1.570312 1.675781 1.570312 1.714844 L 1.570312 23.296875 C 1.570312 23.324219 1.589844 23.363281 1.609375 23.378906 C 1.628906 23.410156 1.667969 23.417969 1.695312 23.417969 C 6.4375 23.417969 13.789062 23.417969 18.664062 23.417969 C 18.703125 23.417969 18.699219 23.398438 18.71875 23.378906 C 18.75 23.363281 18.789062 23.324219 18.789062 23.296875 L 18.789062 21.035156 L 5.285156 21.035156 C 4.421875 21.035156 3.710938 20.34375 3.710938 19.5 L 3.710938 13.128906 C 3.710938 12.289062 4.417969 11.601562 5.285156 11.601562 Z M 9.550781 16.738281 L 10.859375 17.125 C 10.773438 17.480469 10.632812 17.78125 10.445312 18.019531 C 10.253906 18.261719 10.023438 18.441406 9.742188 18.566406 C 9.460938 18.6875 9.105469 18.746094 8.671875 18.746094 C 8.144531 18.746094 7.714844 18.671875 7.382812 18.523438 C 7.050781 18.375 6.761719 18.113281 6.519531 17.738281 C 6.277344 17.367188 6.15625 16.886719 6.15625 16.300781 C 6.15625 15.523438 6.367188 14.925781 6.792969 14.507812 C 7.21875 14.089844 7.820312 13.878906 8.601562 13.878906 C 9.207031 13.878906 9.6875 14 10.035156 14.238281 C 10.382812 14.480469 10.644531 14.847656 10.8125 15.34375 L 9.496094 15.628906 C 9.453125 15.488281 9.402344 15.382812 9.351562 15.316406 C 9.265625 15.203125 9.164062 15.121094 9.042969 15.0625 C 8.921875 15 8.789062 14.972656 8.636719 14.972656 C 8.296875 14.972656 8.039062 15.101562 7.855469 15.367188 C 7.722656 15.566406 7.652344 15.875 7.652344 16.292969 C 7.652344 16.816406 7.734375 17.171875 7.898438 17.367188 C 8.058594 17.558594 8.289062 17.65625 8.582031 17.65625 C 8.867188 17.65625 9.085938 17.578125 9.230469 17.421875 C 9.382812 17.261719 9.484375 17.039062 9.550781 16.738281 Z M 11.339844 17.109375 L 12.757812 17.023438 C 12.789062 17.246094 12.851562 17.417969 12.945312 17.53125 C 13.097656 17.722656 13.316406 17.816406 13.605469 17.816406 C 13.816406 17.816406 13.980469 17.769531 14.097656 17.671875 C 14.214844 17.574219 14.269531 17.460938 14.269531 17.332031 C 14.269531 17.210938 14.214844 17.101562 14.105469 17.003906 C 14 16.90625 13.742188 16.820312 13.34375 16.730469 C 12.6875 16.589844 12.226562 16.398438 11.945312 16.160156 C 11.664062 15.921875 11.523438 15.621094 11.523438 15.25 C 11.523438 15.011719 11.597656 14.78125 11.738281 14.566406 C 11.882812 14.351562 12.101562 14.183594 12.390625 14.0625 C 12.679688 13.9375 13.074219 13.875 13.578125 13.875 C 14.195312 13.875 14.667969 13.988281 14.988281 14.214844 C 15.3125 14.4375 15.507812 14.792969 15.566406 15.28125 L 14.164062 15.363281 C 14.125 15.148438 14.046875 14.992188 13.929688 14.898438 C 13.808594 14.800781 13.644531 14.75 13.433594 14.75 C 13.257812 14.75 13.128906 14.789062 13.039062 14.859375 C 12.953125 14.929688 12.90625 15.015625 12.90625 15.121094 C 12.90625 15.195312 12.941406 15.261719 13.015625 15.320312 C 13.082031 15.382812 13.25 15.441406 13.511719 15.492188 C 14.164062 15.628906 14.632812 15.769531 14.914062 15.910156 C 15.195312 16.046875 15.402344 16.222656 15.527344 16.429688 C 15.65625 16.636719 15.71875 16.871094 15.71875 17.125 C 15.71875 17.429688 15.636719 17.707031 15.464844 17.960938 C 15.292969 18.214844 15.054688 18.410156 14.746094 18.542969 C 14.4375 18.675781 14.050781 18.738281 13.585938 18.738281 C 12.761719 18.738281 12.195312 18.585938 11.878906 18.277344 C 11.5625 17.972656 11.382812 17.582031 11.339844 17.109375 Z M 16.011719 13.957031 L 17.574219 13.957031 L 18.660156 17.347656 L 19.734375 13.957031 L 21.25 13.957031 L 19.457031 18.664062 L 17.839844 18.664062 Z M 20.359375 11.601562 L 22.425781 11.601562 C 23.292969 11.601562 24 12.292969 24 13.132812 L 24 19.503906 C 24 20.34375 23.289062 21.035156 22.425781 21.035156 L 20.359375 21.035156 L 20.359375 23.785156 C 20.359375 24.109375 20.222656 24.398438 20.003906 24.613281 C 19.785156 24.828125 19.488281 24.960938 19.152344 24.960938 C 13.023438 24.960938 7.371094 24.960938 1.210938 24.960938 C 0.875 24.960938 0.578125 24.828125 0.355469 24.613281 C 0.136719 24.398438 0.00390625 24.109375 0.00390625 23.785156 L 0.00390625 1.230469 C 0.00390625 0.902344 0.136719 0.613281 0.355469 0.398438 C 0.578125 0.183594 0.882812 0.0507812 1.210938 0.0507812 L 13.433594 0.0507812 C 13.460938 0.0429688 13.492188 0.0429688 13.519531 0.0429688 C 13.652344 0.0429688 13.789062 0.0976562 13.882812 0.183594 L 13.902344 0.183594 C 13.921875 0.191406 13.933594 0.199219 13.949219 0.21875 L 20.195312 6.375 C 20.300781 6.476562 20.378906 6.617188 20.378906 6.777344 C 20.378906 6.824219 20.367188 6.859375 20.359375 6.90625 Z M 14.058594 5.714844 L 14.058594 1.855469 L 18.519531 6.253906 L 14.613281 6.253906 C 14.457031 6.253906 14.324219 6.191406 14.21875 6.097656 C 14.125 6.003906 14.058594 5.863281 14.058594 5.714844 Z M 14.058594 5.714844 "/>
</g>
</svg>
